<svg width="300" height="300" viewBox="0 0 50 50"
    xmlns="http://www.w3.org/2000/svg">
    <path d="M4 25a4 4 0 0 1 4-4h7v25H4V25Z" fill="#527DA7"/>
    <path d="M26 8c0-2.21 1.876-4 4.19-4H46v38c0 2.21-1.876 4-4.19 4H26V8Z" fill="#01A3B0"/>
    <path d="M15 17.067C15 14.821 16.876 13 19.19 13H35v28.933C35 44.179 33.124 46 30.81 46H15V17.067Z" fill="#FABD15"/>
    <path d="M26 46h4.81c2.314 0 4.19-1.821 4.19-4.067V13h-9v33Z" fill="#7EB063"/>
    <path d="m15 46 4.995-.002A4.005 4.005 0 0 0 24 41.995V21h-9v25Z" fill="#A69D5E"/>
</svg>
